<svg id="svg" version="1.1" xmlns="http://www.w3.org/2000/svg" xmlns:xlink="http://www.w3.org/1999/xlink" width="400" height="400" viewBox="0, 0, 400,400"><g id="svgg"><path id="path0" d="M174.800 30.400 L 174.800 36.800 168.600 36.800 L 162.400 36.800 162.400 49.200 L 162.400 61.600 168.600 61.600 L 174.800 61.600 174.800 86.800 L 174.800 112.000 168.600 112.000 L 162.400 112.000 162.400 118.400 L 162.400 124.800 156.200 124.800 L 150.000 124.800 150.000 131.000 L 150.000 137.200 143.600 137.200 L 137.200 137.200 137.200 149.800 L 137.200 162.400 131.000 162.400 L 124.800 162.400 124.800 175.000 L 124.800 187.600 118.400 187.600 L 112.000 187.600 112.000 231.400 L 112.000 275.200 143.400 275.200 L 174.800 275.200 174.800 281.400 L 174.800 287.600 206.200 287.600 L 237.600 287.600 237.600 281.400 L 237.600 275.200 250.200 275.200 L 262.800 275.200 262.800 231.400 L 262.800 187.600 256.600 187.600 L 250.400 187.600 250.400 206.400 L 250.400 225.200 231.400 225.200 L 212.400 225.200 212.400 212.600 L 212.400 200.000 206.200 200.000 L 200.000 200.000 200.000 193.600 L 200.000 187.200 225.000 187.200 L 250.000 187.200 250.000 174.800 L 250.000 162.400 243.800 162.400 L 237.600 162.400 237.600 149.800 L 237.600 137.200 231.400 137.200 L 225.200 137.200 225.200 131.000 L 225.200 124.800 218.800 124.800 L 212.400 124.800 212.400 118.400 L 212.400 112.000 206.200 112.000 L 200.000 112.000 200.000 93.200 L 200.000 74.400 193.800 74.400 L 187.600 74.400 187.600 68.000 L 187.600 61.600 200.000 61.600 L 212.400 61.600 212.400 49.200 L 212.400 36.800 206.200 36.800 L 200.000 36.800 200.000 30.400 L 200.000 24.000 187.400 24.000 L 174.800 24.000 174.800 30.400 M187.200 55.400 L 187.200 61.600 181.000 61.600 L 174.800 61.600 174.800 55.400 L 174.800 49.200 181.000 49.200 L 187.200 49.200 187.200 55.400 M200.000 131.000 L 200.000 137.200 206.200 137.200 L 212.400 137.200 212.400 143.400 L 212.400 149.600 206.200 149.600 L 200.000 149.600 200.000 143.400 L 200.000 137.200 193.800 137.200 L 187.600 137.200 187.600 131.000 L 187.600 124.800 193.800 124.800 L 200.000 124.800 200.000 131.000 M174.800 156.000 L 174.800 162.400 168.600 162.400 L 162.400 162.400 162.400 156.000 L 162.400 149.600 168.600 149.600 L 174.800 149.600 174.800 156.000 M187.600 206.200 L 187.600 225.200 168.600 225.200 L 149.600 225.200 149.600 231.400 L 149.600 237.600 143.400 237.600 L 137.200 237.600 137.200 231.400 L 137.200 225.200 143.400 225.200 L 149.600 225.200 149.600 212.600 L 149.600 200.000 143.200 200.000 L 136.800 200.000 136.800 193.600 L 136.800 187.200 162.200 187.200 L 187.600 187.200 187.600 206.200 M307.106 212.699 L 300.811 212.820 300.706 225.310 L 300.600 237.800 294.300 237.910 L 288.000 238.020 288.000 244.000 L 288.000 249.980 294.300 250.090 L 300.600 250.200 300.600 269.000 L 300.600 287.800 294.310 287.910 L 288.020 288.020 287.910 294.310 L 287.800 300.600 281.700 300.710 L 275.600 300.821 275.600 307.010 L 275.600 313.200 269.200 313.200 L 262.800 313.200 262.800 300.600 L 262.800 288.000 250.410 288.000 L 238.020 288.000 237.910 294.300 L 237.800 300.600 206.300 300.702 L 174.800 300.805 174.800 294.402 L 174.800 288.000 143.400 288.000 L 112.000 288.000 112.000 313.200 L 112.000 338.400 105.806 338.400 L 99.611 338.400 99.506 350.900 L 99.400 363.400 93.300 363.510 L 87.200 363.621 87.200 381.810 L 87.200 400.000 99.600 400.000 L 112.000 400.000 112.000 394.200 L 112.000 388.400 118.200 388.400 L 124.400 388.400 124.400 375.800 L 124.400 363.200 130.800 363.200 L 137.200 363.200 137.200 375.800 L 137.200 388.400 143.600 388.400 L 150.000 388.400 150.000 394.200 L 150.000 400.000 231.611 400.000 L 313.222 400.000 313.111 394.300 L 313.000 388.600 294.300 388.496 L 275.600 388.392 275.600 382.196 L 275.600 376.000 281.810 376.000 L 288.020 376.000 287.910 369.700 L 287.800 363.400 281.494 363.290 L 275.189 363.180 275.294 350.690 L 275.400 338.200 281.500 338.090 L 287.600 337.979 287.600 331.790 L 287.600 325.600 294.000 325.600 L 300.400 325.600 300.400 319.410 L 300.400 313.220 306.700 313.110 L 313.000 313.000 313.110 306.700 L 313.220 300.400 319.410 300.400 L 325.600 300.400 325.600 256.400 L 325.600 212.400 319.500 212.489 C 316.145 212.538,310.568 212.633,307.106 212.699 M225.200 243.800 L 225.200 250.000 231.400 250.000 L 237.600 250.000 237.600 256.400 L 237.600 262.800 231.400 262.800 L 225.200 262.800 225.200 269.204 L 225.200 275.608 206.300 275.504 L 187.400 275.400 187.290 269.100 L 187.180 262.800 180.990 262.800 L 174.800 262.800 174.800 256.400 L 174.800 250.000 181.000 250.000 L 187.200 250.000 187.200 243.800 L 187.200 237.600 206.200 237.600 L 225.200 237.600 225.200 243.800 M162.400 331.800 L 162.400 338.000 156.000 338.000 L 149.600 338.000 149.600 331.800 L 149.600 325.600 156.000 325.600 L 162.400 325.600 162.400 331.800 M262.800 331.800 L 262.800 338.000 256.600 338.000 L 250.400 338.000 250.400 331.800 L 250.400 325.600 256.600 325.600 L 262.800 325.600 262.800 331.800 M225.200 357.000 L 225.200 363.200 231.400 363.200 L 237.600 363.200 237.600 369.600 L 237.600 376.000 231.400 376.000 L 225.200 376.000 225.200 369.600 L 225.200 363.200 218.800 363.200 L 212.400 363.200 212.400 357.000 L 212.400 350.800 218.800 350.800 L 225.200 350.800 225.200 357.000 M200.000 382.200 L 200.000 388.400 193.800 388.400 L 187.600 388.400 187.600 382.200 L 187.600 376.000 193.800 376.000 L 200.000 376.000 200.000 382.200 " stroke="none" fill="#f7b50e" fill-rule="evenodd"></path><path id="path1" d="M137.200 193.800 L 137.200 200.000 149.800 200.000 L 162.400 200.000 162.400 212.400 L 162.400 224.800 174.800 224.800 L 187.200 224.800 187.200 206.200 L 187.200 187.600 162.200 187.600 L 137.200 187.600 137.200 193.800 M200.000 193.800 L 200.000 200.000 212.600 200.000 L 225.200 200.000 225.200 212.400 L 225.200 224.800 237.600 224.800 L 250.000 224.800 250.000 206.200 L 250.000 187.600 225.000 187.600 L 200.000 187.600 200.000 193.800 M187.600 256.600 L 187.600 262.800 206.400 262.800 L 225.200 262.800 225.200 256.600 L 225.200 250.400 206.400 250.400 L 187.600 250.400 187.600 256.600 M112.000 281.800 L 112.000 288.000 124.400 288.000 L 136.800 288.000 136.800 281.800 L 136.800 275.600 124.400 275.600 L 112.000 275.600 112.000 281.800 M150.000 281.600 L 150.000 287.600 162.400 287.600 L 174.800 287.600 174.800 281.600 L 174.800 275.600 162.400 275.600 L 150.000 275.600 150.000 281.600 M250.400 281.600 L 250.400 287.600 256.600 287.600 L 262.800 287.600 262.800 281.600 L 262.800 275.600 256.600 275.600 L 250.400 275.600 250.400 281.600 M174.800 294.200 L 174.800 300.400 187.400 300.400 L 200.000 300.400 200.000 294.200 L 200.000 288.000 187.400 288.000 L 174.800 288.000 174.800 294.200 M212.800 294.200 L 212.800 300.400 225.200 300.400 L 237.600 300.400 237.600 294.200 L 237.600 288.000 225.200 288.000 L 212.800 288.000 212.800 294.200 " stroke="none" fill="#040404" fill-rule="evenodd"></path><path id="path2" d="M162.178 212.400 C 162.178 219.330,162.233 222.165,162.299 218.700 C 162.366 215.235,162.366 209.565,162.299 206.100 C 162.233 202.635,162.178 205.470,162.178 212.400 M224.978 212.400 C 224.978 219.330,225.033 222.165,225.099 218.700 C 225.166 215.235,225.166 209.565,225.099 206.100 C 225.033 202.635,224.978 205.470,224.978 212.400 M187.600 244.000 L 187.600 250.000 206.200 250.000 L 224.800 250.000 224.800 244.000 L 224.800 238.000 206.200 238.000 L 187.600 238.000 187.600 244.000 M174.800 256.600 L 174.800 262.800 181.000 262.800 L 187.200 262.800 187.200 256.600 L 187.200 250.400 181.000 250.400 L 174.800 250.400 174.800 256.600 M225.200 256.600 L 225.200 262.800 231.400 262.800 L 237.600 262.800 237.600 256.600 L 237.600 250.400 231.400 250.400 L 225.200 250.400 225.200 256.600 M187.600 269.000 L 187.600 275.200 206.200 275.200 L 224.800 275.200 224.800 269.000 L 224.800 262.800 206.200 262.800 L 187.600 262.800 187.600 269.000 " stroke="none" fill="#f7a5f6" fill-rule="evenodd"></path><path id="path3" d="M165.519 36.698 C 167.344 36.772,170.224 36.772,171.919 36.697 C 173.614 36.622,172.120 36.561,168.600 36.562 C 165.080 36.562,163.694 36.624,165.519 36.698 M203.119 36.698 C 204.944 36.772,207.824 36.772,209.519 36.697 C 211.214 36.622,209.720 36.561,206.200 36.562 C 202.680 36.562,201.294 36.624,203.119 36.698 M174.800 55.400 L 174.800 61.600 181.000 61.600 L 187.200 61.600 187.200 55.400 L 187.200 49.200 181.000 49.200 L 174.800 49.200 174.800 55.400 M187.600 68.000 L 187.600 74.400 193.800 74.400 L 200.000 74.400 200.000 68.000 L 200.000 61.600 193.800 61.600 L 187.600 61.600 187.600 68.000 M149.689 130.900 L 149.778 137.400 149.899 131.110 L 150.020 124.820 156.310 124.699 L 162.600 124.578 156.100 124.489 L 149.600 124.400 149.689 130.900 M215.500 124.698 C 217.315 124.772,220.285 124.772,222.100 124.698 C 223.915 124.623,222.430 124.563,218.800 124.563 C 215.170 124.563,213.685 124.623,215.500 124.698 M187.600 131.000 L 187.600 137.200 193.800 137.200 L 200.000 137.200 200.000 143.400 L 200.000 149.600 206.200 149.600 L 212.400 149.600 212.400 143.400 L 212.400 137.200 206.200 137.200 L 200.000 137.200 200.000 131.000 L 200.000 124.800 193.800 124.800 L 187.600 124.800 187.600 131.000 M162.400 156.000 L 162.400 162.400 168.600 162.400 L 174.800 162.400 174.800 156.000 L 174.800 149.600 168.600 149.600 L 162.400 149.600 162.400 156.000 M124.400 174.790 L 124.400 187.180 118.100 187.301 L 111.800 187.422 118.300 187.511 L 124.800 187.600 124.800 175.000 C 124.800 168.070,124.710 162.400,124.600 162.400 C 124.490 162.400,124.400 167.975,124.400 174.790 M250.191 174.900 L 250.200 187.400 256.500 187.416 L 262.801 187.431 256.606 187.306 L 250.411 187.180 250.297 174.790 L 250.183 162.400 250.191 174.900 M136.963 193.600 C 136.963 197.230,137.023 198.715,137.098 196.900 C 137.172 195.085,137.172 192.115,137.098 190.300 C 137.023 188.485,136.963 189.970,136.963 193.600 M300.400 224.990 L 300.400 237.580 294.100 237.706 L 287.800 237.832 294.200 237.816 L 300.600 237.800 300.706 225.310 L 300.811 212.820 307.106 212.699 L 313.400 212.578 306.900 212.489 L 300.400 212.400 300.400 224.990 M137.200 231.400 L 137.200 237.600 143.400 237.600 L 149.600 237.600 149.600 231.400 L 149.600 225.200 143.400 225.200 L 137.200 225.200 137.200 231.400 M294.196 250.294 L 300.392 250.420 300.502 269.110 L 300.612 287.800 300.606 269.000 L 300.600 250.200 294.300 250.184 L 287.999 250.169 294.196 250.294 M181.125 287.899 C 184.714 287.966,190.474 287.966,193.925 287.899 C 197.376 287.833,194.440 287.778,187.400 287.778 C 180.360 287.779,177.536 287.833,181.125 287.899 M225.000 287.906 L 237.600 288.011 237.600 294.200 L 237.600 300.389 224.900 300.503 L 212.200 300.617 225.000 300.609 L 237.800 300.600 237.800 294.200 L 237.800 287.800 225.100 287.800 L 212.400 287.800 225.000 287.906 M181.125 300.699 C 184.714 300.766,190.474 300.766,193.925 300.699 C 197.376 300.633,194.440 300.578,187.400 300.578 C 180.360 300.579,177.536 300.633,181.125 300.699 M275.289 306.900 L 275.378 313.400 275.499 307.110 L 275.620 300.821 281.710 300.699 L 287.800 300.578 281.500 300.489 L 275.200 300.400 275.289 306.900 M149.600 331.800 L 149.600 338.000 156.000 338.000 L 162.400 338.000 162.400 331.800 L 162.400 325.600 156.000 325.600 L 149.600 325.600 149.600 331.800 M250.400 331.800 L 250.400 338.000 256.600 338.000 L 262.800 338.000 262.800 331.800 L 262.800 325.600 256.600 325.600 L 250.400 325.600 250.400 331.800 M287.600 331.790 L 287.600 337.979 281.500 338.090 L 275.400 338.200 275.391 350.700 L 275.383 363.200 275.497 350.800 L 275.611 338.400 281.806 338.400 L 288.000 338.400 288.000 332.000 C 288.000 328.480,287.910 325.600,287.800 325.600 C 287.690 325.600,287.600 328.385,287.600 331.790 M99.467 338.267 C 99.320 338.413,99.200 344.083,99.200 350.867 L 99.200 363.200 93.000 363.200 L 86.800 363.200 86.896 381.700 L 86.992 400.200 87.100 381.910 L 87.208 363.621 93.304 363.510 L 99.400 363.400 99.506 350.910 L 99.611 338.420 105.906 338.299 L 112.200 338.178 105.967 338.089 C 102.538 338.040,99.613 338.120,99.467 338.267 M212.400 357.000 L 212.400 363.200 218.800 363.200 L 225.200 363.200 225.200 369.600 L 225.200 376.000 231.400 376.000 L 237.600 376.000 237.600 369.600 L 237.600 363.200 231.400 363.200 L 225.200 363.200 225.200 357.000 L 225.200 350.800 218.800 350.800 L 212.400 350.800 212.400 357.000 M124.578 375.800 C 124.579 382.840,124.633 385.664,124.699 382.075 C 124.766 378.486,124.766 372.726,124.699 369.275 C 124.633 365.824,124.578 368.760,124.578 375.800 M187.600 382.200 L 187.600 388.400 193.800 388.400 L 200.000 388.400 200.000 382.200 L 200.000 376.000 193.800 376.000 L 187.600 376.000 187.600 382.200 M275.600 382.200 L 275.600 388.400 288.000 388.400 L 300.400 388.400 300.400 382.200 L 300.400 376.000 288.000 376.000 L 275.600 376.000 275.600 382.200 M149.760 394.200 C 149.761 397.500,149.822 398.797,149.898 397.082 C 149.973 395.367,149.972 392.667,149.897 391.082 C 149.821 389.497,149.759 390.900,149.760 394.200 " stroke="none" fill="#b3842d" fill-rule="evenodd"></path><path id="path4" d="M162.094 49.100 L 162.000 62.000 168.500 61.911 L 175.000 61.822 168.706 61.701 L 162.411 61.580 162.300 48.890 L 162.188 36.200 162.094 49.100 M212.400 48.990 L 212.400 61.580 206.100 61.701 L 199.800 61.822 206.300 61.911 L 212.800 62.000 212.800 49.200 C 212.800 42.160,212.710 36.400,212.600 36.400 C 212.490 36.400,212.400 42.065,212.400 48.990 M162.162 118.200 C 162.162 121.720,162.224 123.106,162.298 121.281 C 162.372 119.456,162.372 116.576,162.297 114.881 C 162.222 113.186,162.161 114.680,162.162 118.200 M212.562 118.200 C 212.562 121.720,212.624 123.106,212.698 121.281 C 212.772 119.456,212.772 116.576,212.697 114.881 C 212.622 113.186,212.561 114.680,212.562 118.200 M136.800 149.390 L 136.800 161.980 130.500 162.106 L 124.200 162.232 130.600 162.216 L 137.000 162.200 137.106 149.710 L 137.211 137.220 143.506 137.099 L 149.800 136.978 143.300 136.889 L 136.800 136.800 136.800 149.390 M231.294 137.099 L 237.589 137.220 237.694 149.710 L 237.800 162.200 244.100 162.216 L 250.401 162.231 244.200 162.106 L 238.000 161.980 238.000 149.390 L 238.000 136.800 231.500 136.889 L 225.000 136.978 231.294 137.099 M174.796 187.497 L 187.192 187.611 187.302 206.206 L 187.412 224.800 187.406 206.100 L 187.400 187.400 174.900 187.391 L 162.400 187.383 174.796 187.497 M209.300 187.500 C 214.525 187.563,223.075 187.563,228.300 187.500 C 233.525 187.436,229.250 187.385,218.800 187.385 C 208.350 187.385,204.075 187.436,209.300 187.500 M287.763 244.000 C 287.763 247.630,287.823 249.115,287.898 247.300 C 287.972 245.485,287.972 242.515,287.898 240.700 C 287.823 238.885,287.763 240.370,287.763 244.000 M165.519 275.498 C 167.344 275.572,170.224 275.572,171.919 275.497 C 173.614 275.422,172.120 275.361,168.600 275.362 C 165.080 275.362,163.694 275.424,165.519 275.498 M250.161 281.600 C 250.161 285.010,250.222 286.405,250.297 284.700 C 250.372 282.995,250.372 280.205,250.297 278.500 C 250.222 276.795,250.161 278.190,250.161 281.600 M287.689 294.100 L 287.778 300.600 287.899 294.310 L 288.020 288.020 294.310 287.899 L 300.600 287.778 294.100 287.689 L 287.600 287.600 287.689 294.100 M316.319 300.698 C 318.144 300.772,321.024 300.772,322.719 300.697 C 324.414 300.622,322.920 300.561,319.400 300.562 C 315.880 300.562,314.494 300.624,316.319 300.698 M265.919 313.098 C 267.744 313.172,270.624 313.172,272.319 313.097 C 274.014 313.022,272.520 312.961,269.000 312.962 C 265.480 312.962,264.094 313.024,265.919 313.098 M300.562 319.400 C 300.562 322.920,300.624 324.306,300.698 322.481 C 300.772 320.656,300.772 317.776,300.697 316.081 C 300.622 314.386,300.561 315.880,300.562 319.400 M130.800 363.494 L 136.800 363.621 136.800 376.210 L 136.800 388.800 143.300 388.711 L 149.800 388.622 143.506 388.501 L 137.211 388.380 137.106 375.890 L 137.000 363.400 130.900 363.384 L 124.799 363.368 130.800 363.494 M294.090 375.899 L 300.380 376.020 300.501 382.310 L 300.622 388.600 300.711 382.100 L 300.800 375.600 294.300 375.689 L 287.800 375.778 294.090 375.899 M115.100 388.698 C 116.915 388.772,119.885 388.772,121.700 388.698 C 123.515 388.623,122.030 388.563,118.400 388.563 C 114.770 388.563,113.285 388.623,115.100 388.698 " stroke="none" fill="#876b2a" fill-rule="evenodd"></path><path id="path5" d="M143.525 187.499 C 147.114 187.566,152.874 187.566,156.325 187.499 C 159.776 187.433,156.840 187.378,149.800 187.378 C 142.760 187.379,139.936 187.433,143.525 187.499 M243.800 187.494 L 250.000 187.620 250.000 206.204 L 250.000 224.789 237.600 224.903 L 225.200 225.017 237.700 225.009 L 250.200 225.000 250.200 206.200 L 250.200 187.400 243.900 187.384 L 237.599 187.369 243.800 187.494 M168.500 225.099 C 171.965 225.166,177.635 225.166,181.100 225.099 C 184.565 225.033,181.730 224.978,174.800 224.978 C 167.870 224.978,165.035 225.033,168.500 225.099 M124.390 275.497 L 136.780 275.611 136.906 281.806 L 137.031 288.001 137.016 281.700 L 137.000 275.400 124.500 275.391 L 112.000 275.383 124.390 275.497 M149.867 275.467 C 149.720 275.613,149.600 278.493,149.600 281.867 L 149.600 288.000 162.300 287.906 L 175.000 287.812 162.500 287.700 L 150.000 287.589 150.000 281.604 L 150.000 275.620 156.300 275.499 L 162.600 275.378 156.367 275.289 C 152.938 275.240,150.013 275.320,149.867 275.467 M253.519 275.498 C 255.344 275.572,258.224 275.572,259.919 275.497 C 261.614 275.422,260.120 275.361,256.600 275.362 C 253.080 275.362,251.694 275.424,253.519 275.498 M253.519 287.898 C 255.344 287.972,258.224 287.972,259.919 287.897 C 261.614 287.822,260.120 287.761,256.600 287.762 C 253.080 287.762,251.694 287.824,253.519 287.898 M212.562 294.200 C 212.562 297.720,212.624 299.106,212.698 297.281 C 212.772 295.456,212.772 292.576,212.697 290.881 C 212.622 289.186,212.561 290.680,212.562 294.200 " stroke="none" fill="#744c0c" fill-rule="evenodd"></path><path id="path6" d="M187.376 250.518 C 187.267 250.802,187.233 253.727,187.300 257.018 L 187.423 263.000 187.512 256.704 L 187.600 250.408 206.500 250.300 L 225.400 250.192 206.487 250.096 C 191.315 250.019,187.536 250.102,187.376 250.518 " stroke="none" fill="#7c2c7c" fill-rule="evenodd"></path><path id="path7" d="M187.200 243.790 L 187.200 249.980 180.900 250.106 L 174.600 250.232 181.000 250.216 L 187.400 250.200 187.510 244.100 L 187.621 238.000 206.200 238.000 L 224.779 238.000 224.890 244.100 L 225.000 250.200 231.200 250.215 L 237.400 250.230 231.300 250.105 L 225.200 249.980 225.200 243.790 L 225.200 237.600 206.200 237.600 L 187.200 237.600 187.200 243.790 M187.384 269.100 L 187.400 275.400 206.300 275.504 L 225.200 275.608 225.111 269.104 L 225.022 262.600 224.901 268.900 L 224.780 275.200 206.200 275.200 L 187.620 275.200 187.494 269.000 L 187.369 262.799 187.384 269.100 " stroke="none" fill="#fca07d" fill-rule="evenodd"></path><path id="path8" d="M149.600 212.600 L 149.600 225.200 155.800 225.200 L 162.000 225.200 162.000 212.600 L 162.000 200.000 155.800 200.000 L 149.600 200.000 149.600 212.600 M212.400 212.600 L 212.400 225.200 218.600 225.200 L 224.800 225.200 224.800 212.600 L 224.800 200.000 218.600 200.000 L 212.400 200.000 212.400 212.600 M137.200 281.600 L 137.200 288.000 143.400 288.000 L 149.600 288.000 149.600 281.600 L 149.600 275.200 143.400 275.200 L 137.200 275.200 137.200 281.600 M237.600 281.600 L 237.600 288.000 243.800 288.000 L 250.000 288.000 250.000 281.600 L 250.000 275.200 243.800 275.200 L 237.600 275.200 237.600 281.600 M200.000 294.200 L 200.000 300.800 206.200 300.800 L 212.400 300.800 212.400 294.200 L 212.400 287.600 206.200 287.600 L 200.000 287.600 200.000 294.200 " stroke="none" fill="#fcd444" fill-rule="evenodd"></path></g></svg>